HIERARCHY
ROOT Hips
{
	OFFSET -14.64140 90.27770 -84.91600
	CHANNELS 6 Xposition Yposition Zposition Zrotation Xrotation Yrotation
	JOINT Spine
	{
		OFFSET 0.00000 13.20850 -1.60436
		CHANNELS 3 Zrotation Xrotation Yrotation
		JOINT Spine1
		{
			OFFSET 0.00000 8.61716 0.00000
			CHANNELS 3 Zrotation Xrotation Yrotation
			JOINT Spine2
			{
				OFFSET 0.00000 8.61717 0.00000
				CHANNELS 3 Zrotation Xrotation Yrotation
				JOINT Spine3
				{
					OFFSET 0.00000 8.61717 0.00000
					CHANNELS 3 Zrotation Xrotation Yrotation
					JOINT Neck
					{
						OFFSET 0.00000 11.07920 1.10792
						CHANNELS 3 Zrotation Xrotation Yrotation
						JOINT Neck1
						{
							OFFSET 0.00000 7.08032 0.00000
							CHANNELS 3 Zrotation Xrotation Yrotation
							JOINT Head
							{
								OFFSET 0.00000 7.08031 0.00000
								CHANNELS 3 Zrotation Xrotation Yrotation
								End site
								{
									OFFSET 0.00000 0.00000 0.00000
								}
							}
						}
					}
					JOINT RightShoulder
					{
						OFFSET -0.01000 7.91373 5.19711
						CHANNELS 3 Zrotation Xrotation Yrotation
						JOINT RightArm
						{
							OFFSET -18.41580 0.00000 0.00000
							CHANNELS 3 Zrotation Xrotation Yrotation
							JOINT RightForeArm
							{
								OFFSET -29.11090 0.00000 0.00000
								CHANNELS 3 Zrotation Xrotation Yrotation
								JOINT RightHand
								{
									OFFSET -24.65040 0.00000 0.00000
									CHANNELS 3 Zrotation Xrotation Yrotation
									JOINT RightHandThumb1
									{
										OFFSET -5.35114 -0.85590 3.97906
										CHANNELS 3 Zrotation Xrotation Yrotation
										JOINT RightHandThumb2
										{
											OFFSET -4.52789 0.00000 0.00000
											CHANNELS 3 Zrotation Xrotation Yrotation
											JOINT RightHandThumb3
											{
												OFFSET -2.46976 0.00000 0.00000
												CHANNELS 3 Zrotation Xrotation Yrotation
												End site
												{
													OFFSET 0.00000 0.00000 0.00000
												}
											}
										}
									}
									JOINT RightHandIndex1
									{
										OFFSET -14.26970 0.00000 2.88139
										CHANNELS 3 Zrotation Xrotation Yrotation
										JOINT RightHandIndex2
										{
											OFFSET -5.48836 0.00000 0.00000
											CHANNELS 3 Zrotation Xrotation Yrotation
											JOINT RightHandIndex3
											{
												OFFSET -3.01859 0.00000 0.00000
												CHANNELS 3 Zrotation Xrotation Yrotation
												End site
												{
													OFFSET 0.00000 0.00000 0.00000
												}
											}
										}
									}
									JOINT RightHandMiddle1
									{
										OFFSET -14.26970 0.00000 -0.09147
										CHANNELS 3 Zrotation Xrotation Yrotation
										JOINT RightHandMiddle2
										{
											OFFSET -6.17441 0.00000 0.00000
											CHANNELS 3 Zrotation Xrotation Yrotation
											JOINT RightHandMiddle3
											{
												OFFSET -3.56743 0.00000 0.00000
												CHANNELS 3 Zrotation Xrotation Yrotation
												End site
												{
													OFFSET 0.00000 0.00000 0.00000
												}
											}
										}
									}
									JOINT RightHandRing1
									{
										OFFSET -12.69180 0.00000 -3.06433
										CHANNELS 3 Zrotation Xrotation Yrotation
										JOINT RightHandRing2
										{
											OFFSET -5.62556 0.00000 0.00000
											CHANNELS 3 Zrotation Xrotation Yrotation
											JOINT RightHandRing3
											{
												OFFSET -3.56744 0.00000 0.00000
												CHANNELS 3 Zrotation Xrotation Yrotation
												End site
												{
													OFFSET 0.00000 0.00000 0.00000
												}
											}
										}
									}
									JOINT RightHandPinky1
									{
										OFFSET -11.11390 0.00000 -6.03719
										CHANNELS 3 Zrotation Xrotation Yrotation
										JOINT RightHandPinky2
										{
											OFFSET -4.52789 0.00000 0.00000
											CHANNELS 3 Zrotation Xrotation Yrotation
											JOINT RightHandPinky3
											{
												OFFSET -2.46976 0.00000 0.00000
												CHANNELS 3 Zrotation Xrotation Yrotation
												End site
												{
													OFFSET 0.00000 0.00000 0.00000
												}
											}
										}
									}
								}
							}
						}
					}
					JOINT LeftShoulder
					{
						OFFSET 0.01000 7.91373 5.19711
						CHANNELS 3 Zrotation Xrotation Yrotation
						JOINT LeftArm
						{
							OFFSET 18.41580 0.00000 0.00000
							CHANNELS 3 Zrotation Xrotation Yrotation
							JOINT LeftForeArm
							{
								OFFSET 29.11090 0.00000 0.00000
								CHANNELS 3 Zrotation Xrotation Yrotation
								JOINT LeftHand
								{
									OFFSET 24.65040 0.00000 0.00000
									CHANNELS 3 Zrotation Xrotation Yrotation
									JOINT LeftHandThumb1
									{
										OFFSET 5.35114 -0.85590 3.97906
										CHANNELS 3 Zrotation Xrotation Yrotation
										JOINT LeftHandThumb2
										{
											OFFSET 4.52789 0.00000 0.00000
											CHANNELS 3 Zrotation Xrotation Yrotation
											JOINT LeftHandThumb3
											{
												OFFSET 2.46977 0.00000 0.00000
												CHANNELS 3 Zrotation Xrotation Yrotation
												End site
												{
													OFFSET 0.00000 0.00000 0.00000
												}
											}
										}
									}
									JOINT LeftHandIndex1
									{
										OFFSET 14.26970 0.00000 2.88139
										CHANNELS 3 Zrotation Xrotation Yrotation
										JOINT LeftHandIndex2
										{
											OFFSET 5.48836 0.00000 0.00000
											CHANNELS 3 Zrotation Xrotation Yrotation
											JOINT LeftHandIndex3
											{
												OFFSET 3.01859 0.00000 0.00000
												CHANNELS 3 Zrotation Xrotation Yrotation
												End site
												{
													OFFSET 0.00000 0.00000 0.00000
												}
											}
										}
									}
									JOINT LeftHandMiddle1
									{
										OFFSET 14.26970 0.00000 -0.09147
										CHANNELS 3 Zrotation Xrotation Yrotation
										JOINT LeftHandMiddle2
										{
											OFFSET 6.17440 0.00000 0.00000
											CHANNELS 3 Zrotation Xrotation Yrotation
											JOINT LeftHandMiddle3
											{
												OFFSET 3.56744 0.00000 0.00000
												CHANNELS 3 Zrotation Xrotation Yrotation
												End site
												{
													OFFSET 0.00000 0.00000 0.00000
												}
											}
										}
									}
									JOINT LeftHandRing1
									{
										OFFSET 12.69180 0.00000 -3.06433
										CHANNELS 3 Zrotation Xrotation Yrotation
										JOINT LeftHandRing2
										{
											OFFSET 5.62556 0.00000 0.00000
											CHANNELS 3 Zrotation Xrotation Yrotation
											JOINT LeftHandRing3
											{
												OFFSET 3.56744 0.00000 0.00000
												CHANNELS 3 Zrotation Xrotation Yrotation
												End site
												{
													OFFSET 0.00000 0.00000 0.00000
												}
											}
										}
									}
									JOINT LeftHandPinky1
									{
										OFFSET 11.11390 0.00000 -6.03719
										CHANNELS 3 Zrotation Xrotation Yrotation
										JOINT LeftHandPinky2
										{
											OFFSET 4.52789 0.00000 0.00000
											CHANNELS 3 Zrotation Xrotation Yrotation
											JOINT LeftHandPinky3
											{
												OFFSET 2.46976 0.00000 0.00000
												CHANNELS 3 Zrotation Xrotation Yrotation
												End site
												{
													OFFSET 0.00000 0.00000 0.00000
												}
											}
										}
									}
								}
							}
						}
					}
					JOINT pCube4
					{
						OFFSET 0.00000 10.91090 1.10792
						CHANNELS 3 Zrotation Xrotation Yrotation
						End site
						{
							OFFSET 0.00000 0.00000 0.00000
						}
					}
				}
			}
		}
	}
	JOINT RightUpLeg
	{
		OFFSET -9.98441 0.00000 0.00000
		CHANNELS 3 Zrotation Xrotation Yrotation
		JOINT RightLeg
		{
			OFFSET 0.00000 -42.11790 0.00000
			CHANNELS 3 Zrotation Xrotation Yrotation
			JOINT RightFoot
			{
				OFFSET 0.00000 -45.00020 -0.00001
				CHANNELS 3 Zrotation Xrotation Yrotation
				JOINT RightForeFoot
				{
					OFFSET 0.00000 -3.74820 0.00000
					CHANNELS 3 Zrotation Xrotation Yrotation
					JOINT RightToeBase
					{
						OFFSET 0.00000 0.06325 14.43120
						CHANNELS 3 Zrotation Xrotation Yrotation
						End site
						{
							OFFSET 0.00000 0.00000 0.00000
						}
					}
				}
			}
		}
	}
	JOINT LeftUpLeg
	{
		OFFSET 9.98441 0.00000 0.00000
		CHANNELS 3 Zrotation Xrotation Yrotation
		JOINT LeftLeg
		{
			OFFSET 0.00000 -42.11800 0.00000
			CHANNELS 3 Zrotation Xrotation Yrotation
			JOINT LeftFoot
			{
				OFFSET 0.00000 -45.00070 0.00000
				CHANNELS 3 Zrotation Xrotation Yrotation
				JOINT LeftForeFoot
				{
					OFFSET 0.00000 -3.74824 0.00000
					CHANNELS 3 Zrotation Xrotation Yrotation
					JOINT LeftToeBase
					{
						OFFSET 0.00000 0.06325 14.43110
						CHANNELS 3 Zrotation Xrotation Yrotation
						End site
						{
							OFFSET 0.00000 0.00000 0.00000
						}
					}
				}
			}
		}
	}
}
MOTION
Frames: 4
Frame Time: 0.050000
0.03607098622095905 -0.01743676256301212 0.03839963725128967 0.023071653941942178 0.02644178829638047 0.0016339643622065637 -4.630307735348537 -0.7553689184959226 -0.4251970732018908 -1.0070940589408328 3.5252018068388513 0.4014304536463017 -1.4801009901516007 -2.2255984305000744 -0.5945368506588972 -0.6993852600135705 -0.09108604287643374 -0.823407462569094 0.30630337475877184 12.439366336679306 -0.22598137529485712 0.35347047290275857 -0.09155985709128818 -2.8002853438499917 0.5994206580189665 -15.183397382369126 -0.29786217824384525 -7.057762176358702 2.405851136050735 -12.496835703787697 58.45907453836144 14.832792096609715 29.51774746314525 5.830964927219546 0.5510345155286838 102.2995505897277 20.633049212260342 -0.7553615537944769 -3.966925679684999 4.574110946607504 -0.1039109327021458 -1.550845170236595 0.009274447487015001 0.000775678170750706 -56.20847314280303 0.02204937548130764 -0.03808099902111832 -56.25897741961788 -38.8066697665068 0.02287564314306844 -0.016730440647261847 -0.01728181291969094 -0.030956692240219262 0.042616285182104904 0.02185959741003571 -0.038829378949490706 0.018267155047794623 -36.683829600744616 -0.026299056668931415 -0.04529211686700002 -0.0005019707904031098 0.01815422388597662 0.026085809791969578 -0.03609726038425332 0.006816393036111758 0.03761940181168762 -19.731431481060604 -0.04494736238452979 0.02893011495635084 -0.034477855866432656 -0.03077616311570708 -0.001134642083929104 -0.0026303834152127154 0.042583813043606256 5.5893404253752525e-05 24.05164520749712 0.018846742394797878 0.0034730162195031177 28.857879245908222 -0.01839542569469997 -0.04699468371843358 28.88746508432897 -0.03164083979975352 -0.009363009864090988 7.158479376663323 1.6227232905279325 11.566611190999174 -63.431035839594614 22.674521955146083 -20.86807282529188 -44.60957644440928 5.475891944237907 -94.32441919944877 -11.38294316248775 -2.3576151961063645 0.7414145636911014 -0.4665730991166567 0.044562626466138594 -8.132930372620155 0.018229576851834933 0.012044949781501748 44.551938515333205 0.025954522016258776 -0.019241190192988665 44.59256367485174 12.410834877109957 0.035719151634414484 0.03558842874751529 0.012387422510070684 0.004534770585980973 -0.026643350164898497 0.034072143436972714 0.030804077131566958 0.012888028875251978 11.117775741718605 -0.040595268002195914 -0.009600623066928288 0.010868752370282073 0.013534899150535542 0.041889825495942605 0.03854287586729766 -0.015618188182346933 0.014940330255996875 4.805363822920703 -0.003211070863930616 0.0001907946574620331 -0.027915799643018612 0.02630514235081531 -0.015679063622145398 0.0363863558423183 0.0066445927583412044 0.011329510875457359 -5.55138939054575 0.009334385940151407 -0.03169429745944822 -6.671978980098064 -0.005977317343221594 -0.04075251495549119 -6.751895549979674 0.03206646856829621 -0.03387233891176494 0.01588332886373586 0.004351538108314424 -0.011910964160640728 8.084318247397935 3.517227891350621 -19.183705680405417 0.014923785772197691 10.39610943466004 0.006248711073529631 -5.62458019671051 -15.699049526635797 3.229987691306582 0.04000745721326236 0.042206777888791576 0.040586631049510685 0.023521751669181197 4.663853777315411 -0.004025903568647803 12.463928329475488 -8.276931466349273 6.894997564154416 0.04755573460624709 46.41962681877398 -0.02401304554578638 -4.292712868450749 -14.765035433452955 -3.8502865049719794 -0.023392696519730083 -0.019939301846796494 0.004504285437855905 0.03889967899289627 -10.715789307229725 0.028521468111988607 
0.008217917167129633 -0.017749936126980774 0.012018012441751338 0.007054617770727658 -0.03350386726080551 0.012303647342082771 -4.658759874976873 -0.7391451944529002 -0.4762795826068589 -1.0275002937697864 3.48996502616154 0.39256448975231656 -1.4550808728394973 -2.314392233233405 -0.7301152721003755 -0.6961811378834531 -0.10500612289205541 -0.8301116481894975 0.26511992881964164 12.473513108997855 -0.253774279348642 0.3878241911780409 -0.07063455965358334 -2.7344364509175154 0.6097171955134403 -15.068542044772375 -0.22723512128795376 -6.932007318755711 2.3462428933875055 -12.534134769815852 59.897072832618996 14.236797154903867 28.390191144636383 6.024339031464009 0.7968633429513154 101.1883699485931 21.288518664542572 -0.7474079221951525 -4.40726667893205 4.507597258246624 -0.14480045590626922 -1.6160211695574966 -0.04098662337446587 -0.03637014359546464 -56.2185760023286 -0.02946966595090847 0.016302356632444056 -56.20331854949251 -38.791373173409724 -0.0216024977461742 -0.03242997564663971 0.004828025653518943 0.008551465360664727 -0.014207521038552657 -0.012606456428422784 0.00932566900295852 0.0003016338438805115 -36.67773281981135 0.01922891377429219 0.030387314158304524 0.028177140308018742 0.007192834005576858 -0.03574407682884322 0.034611304041141114 0.0355628961092641 -0.03945880161645449 -19.743457798265965 0.01991080937447002 0.025916875193845883 -0.045611134924276354 0.02095534945785841 -0.03699056113160034 -0.01642859910685446 -0.0016021534488200842 -0.017862854185645906 24.10407484544074 -0.030454190852100244 0.018964515938142197 28.896828301207556 0.018053178472453205 -0.044998201700062294 28.84724946756775 -0.0381060634545991 -0.0023080708010966276 7.196951896929644 1.6551293785065189 11.47447094631298 -63.57142703004821 22.702381161461805 -21.17132049997368 -44.03520457149792 5.45723886990821 -93.82582984651562 -12.316648646173327 -2.887526441415852 1.3841514092097835 -0.44187029604117684 0.11439723271441274 -8.094979256506813 -0.034832036278173654 0.010681352121974852 44.609618591658055 0.02969399106059745 -0.03943086076138224 44.562053753402964 12.47039190803442 0.02701043271464479 -0.0067947149415810695 0.037032355080042476 -0.0235586278252611 0.018984987240965024 0.00979344510493614 0.010136211051122928 -0.04568566941560417 11.112884130088412 0.007162124603320939 0.008358061817611642 -0.02898381664481439 -0.005959777262321246 -0.018137623012940442 -0.020653520418242845 -0.02767562821001421 0.027165697272977535 4.733437112036316 0.009591439899034564 -0.0015704842920229315 -0.013618813627323829 -0.005701857796386493 -0.04649366905020643 -0.0011324420377942651 0.026597791389921115 0.010624619942759218 -5.615438046192831 -0.00740343210854934 -0.017343105260623614 -6.752291859463426 0.02305972930714755 -0.020415322698504348 -6.733112162417511 -0.0012111164622273048 -0.027445469152067872 -0.008773439596428822 0.04578352583834015 -0.0024077467369683025 8.077528588292688 3.4958682134505477 -19.229029232980803 -0.04663477090913816 10.432472954041078 0.019454508431010716 -5.616719490254855 -15.630784985249846 3.1847029711863044 -0.026127044868556312 0.048098039367672284 0.02346228856527848 0.028539592558144762 4.708600753936687 0.04013964445902993 12.451600241783765 -8.219672457164444 6.856851136534004 -0.029364885039811082 46.39086034533871 0.048932755738211146 -4.306527926286103 -14.753600318441423 -3.846670966976774 0.005832953590812315 -0.03160684608929911 0.0077341997327755995 -0.030593402557184967 -10.716111644316076 0.01941910842237854 
-0.023128162644288155 -0.010752018344444593 0.0020316115343767117 0.013749293268317678 0.0328260653838627 -0.035326408640265615 -4.60675570071721 -0.6459501805749943 -0.4588327350705609 -1.0052006368561905 3.4588733028411824 0.42392174882835326 -1.463208696406585 -2.2726616312763737 -0.8722879410720642 -0.6594119332599043 -0.05231921819786389 -0.793349254623542 0.19870791014512632 12.511824966071645 -0.3007195338846544 0.37523582358981505 0.03184046423077688 -2.752516273466284 0.5832342378190987 -14.900825586255236 -0.2832328718887641 -6.821958858120951 2.38093379525815 -12.533668298560295 60.97857647606217 14.47338099071331 28.115391794795777 6.420743532898099 1.116389540003975 100.32553891295524 21.783960688238945 -0.7404110824059738 -4.814982082664175 4.53747536823601 -0.14226184608304804 -1.5906200539973208 0.006739390611042165 0.018693204964708852 -56.27179033287212 -0.02910640461065263 0.042134257611860265 -56.2573812736989 -38.75163480195874 -0.037094595661322914 -0.047055417151611836 -0.0023099492306468622 -0.0011788644745109034 0.01684789134534714 0.005507468439829855 -0.02211778302635109 -0.03168832287737527 -36.65723764201957 0.012743099673118936 -0.045012879995490876 0.01650978757024307 0.006585040586409595 0.027147549424682314 -0.044394955919141506 0.030980253643501567 -0.04175550795432194 -19.729458177111734 -0.018317777559365242 -0.016253337405264825 0.014942490862912584 0.0173431886615961 -0.017309725652558474 0.03795415964073151 -0.04846643324150527 -0.0005226560507627129 24.087490485864134 0.034645437128080124 0.04657604146812099 28.902176354381705 -0.010698654154083938 0.029615349619882922 28.8926985603924 0.04211518328783771 0.036180102553606895 7.444400611953803 1.6782478558443243 11.40302230687334 -63.01367468742483 23.197486008264043 -22.57091858505155 -39.65054578826812 4.302404142559191 -93.28752893293127 -13.071972781351649 -3.7947251481492055 2.247303797351235 -0.4996082580025436 0.08808394962221093 -8.083094273553531 0.018625595893010168 -0.029986455608925915 44.5669284765104 -0.004089859684031213 -0.011681809414719881 44.56915263918843 12.430665133950122 -0.0290398753139385 -0.019682786474635314 0.010323096101440894 -0.020011499131123153 -0.001411687111560892 -0.044871831905733864 0.003680794791649268 -0.0030483479779771965 11.133910374231453 0.006415922048809287 -0.014072263973788328 0.046082676475387045 -0.020552910864796645 0.0010529168900132524 -0.022272085641088058 -0.015476215132662457 0.039127708587312626 4.726930139956654 0.011174342690549028 -0.010941568898541644 -0.028787232158090075 -0.04614124275294633 -0.012001746740953894 -0.020959608597281104 -0.03420238594932339 -0.01831257925979229 -5.560012874896821 0.025187172221017438 0.028853574788812175 -6.745399512025145 -0.009582708687543047 -0.02272412452209078 -6.719225682167571 -0.009694548633739452 0.016394266156440473 0.0041903773975262544 -0.0016893910700210891 -0.006447343800140594 8.026261220005875 3.5266592513158876 -19.210206951868955 0.027891682792968907 10.407287501190343 0.04037604567330209 -5.618001066334745 -15.650727841881661 3.18396184319623 0.020120662456142288 -0.03622795513093868 -0.015136387109718118 -0.045478329615210165 4.7160663196115875 0.04008861368124682 12.438971011826208 -8.236639375428737 6.908166031343116 -0.0059844259332346 46.358436736320584 -0.023963157821323137 -4.298145238439837 -14.724554169344415 -3.85261007002961 0.03104142284718669 -0.04319994579059596 -0.01597422308078828 0.016034280829853108 -10.732836343622608 0.014559680199527442 
-0.014608305599786662 -0.016943649661705376 0.0051513770518273536 0.0209177529260752 -0.010645372108106937 -0.02413087858085472 -4.5637722871788275 -0.5583495771457764 -0.5548908937590051 -0.9647466689472929 3.387192876426222 0.4139916225705448 -1.397529245535665 -2.2680452440957715 -0.9986895358202992 -0.6410371569975513 -0.09668567439398866 -0.8313061042263908 0.20568779359613368 12.557984280841373 -0.41042261599175994 0.40104316467554524 0.09040648996472589 -2.9317657636900405 0.5948266913578547 -14.770820685897075 -0.2450512529769235 -6.761648495297803 2.3532128786373208 -12.32964871861272 61.65067003058389 15.642509202758326 28.452132650846156 6.860585394414347 1.3125797901161862 99.63972798858475 22.13581656114121 -0.6364188975552698 -5.0614963626906775 4.539225412459213 -0.08012271205168245 -1.5875850660953514 -0.01073664745185835 -0.04268914141667971 -56.256203198221456 -0.03433636024203133 -0.04338793160101939 -56.22695477426863 -38.72294129281891 0.04675287645313417 -0.011063096733595726 0.011131978300092283 0.012582948752822308 0.00046045257634884775 -0.03410814701426907 0.025874134353881185 -0.015466208976801468 -36.68851288728216 -0.011397514046263072 0.010167924593159326 0.003927508100749987 0.0003434006035808648 0.019732107296984203 0.026492350816488798 -0.04978397009855553 -0.030269584515934787 -19.71090983936304 -0.011693399255301452 -0.013070766020073416 -0.041628319880606786 0.03574519537394954 0.00875962805482453 0.03957759329991343 -0.022226974915885215 0.03595550548185717 24.050704889288806 -0.011658990459626964 0.045201606478846044 28.83799658621066 -0.0360140443387152 -0.015530912243072103 28.907945194093124 -0.0008095993968575429 -0.049229491181065156 7.707005295625535 1.7619064632320975 11.272822493690603 -62.21947769255624 23.806467069221807 -24.464314639773168 -34.02020899596127 2.6957882755552744 -93.38263495635213 -13.651974658186901 -4.812711827953222 3.185390871010144 -0.47051569217985656 0.03854683034800366 -8.079149736160163 -0.007895531377590649 0.04551066604233908 44.546723560921436 -0.024181005963075076 0.01576740894143792 44.52623190780713 12.494664586186913 0.013583195166413325 0.029340286160237844 0.029080246656347397 0.03941857334770623 -0.018181342937278848 -0.017006665047606218 -0.02782932156713035 -0.037298308432887964 11.07721290666937 -0.02411539993830879 0.001334807279251085 -0.02397279549009161 0.028649222267844526 0.047261937568306385 -0.01761196803610619 0.044146457074159665 0.01935802493140329 4.76061676453084 0.010384006603575259 -0.03119308752057108 -0.02261339550869592 0.02903239851882729 -0.017143568083623533 0.009612703170012098 -0.0015550762997052522 0.041092828988399596 -5.625706633597864 -0.023214019885711867 0.04870782542314815 -6.695504154570391 0.0057328961591762186 -0.04816544662104251 -6.731571762836368 0.01709908838310263 -0.049883168950700746 -0.03685854679741624 -0.025122687844816423 -0.004689136490396227 8.044904110843508 3.48665324933804 -19.25256866916857 0.0016937987390017962 10.388749220545156 0.05008033760907743 -5.645095898359607 -15.68663611958758 3.158404193058114 -0.0328898667605183 0.007212146608891307 -0.04103034515578926 -0.024425879341128706 4.746061600153022 0.025220150784498397 12.4609894304816 -8.197294356378906 6.838793469458111 0.005197405116047237 46.38023337266861 0.026667716525971094 -4.36015105861547 -14.711410442744711 -3.8678691069146156 -0.022335434554825336 0.011411646022097021 0.031420636152650526 -0.033459411757428226 -10.73676373225418 -0.03507765122790565 
